# xmcd
# 
# Track frame offsets:
#     150
#     25128
#     45048
#     67165
#     88700
#     110223
#     128098
#     148235
#     173753
#     195280
#     219648
#     238768
# 
# Disc length: 3419
# 
# Revision: 8
# Processed by: cddbd v1.5.2PL0 Copyright (c) Steve Scherf et al.
# Submitted via: fre:ac v1.0.31
# 
DISCID=aa0d590c
DTITLE=岩崎宏美 - Dear Friends
DYEAR=2003
DGENRE=J-POP
TTITLE0=恋におちて
TTITLE1=さらば恋人
TTITLE2=時代
TTITLE3=あなたの心に(ALBUM VERSION)
TTITLE4=恋しくて with 佐藤竹善
TTITLE5=ブルー
TTITLE6=夢(New Vocal and Mix VERSION)
TTITLE7=止まった時計(ALBUM VERSION)
TTITLE8=誰もいない海 with 岩崎良美
TTITLE9=コバルトの季節の中で
TTITLE10=君と歩いた青春
TTITLE11=見上げてごらん夜の星を
EXTD=YEAR: 2003
EXTT0=
EXTT1=
EXTT2=
EXTT3=
EXTT4=
EXTT5=
EXTT6=
EXTT7=
EXTT8=
EXTT9=
EXTT10=
EXTT11=
PLAYORDER=
